<svg width="328" height="75" viewBox="0 0 328 75" fill="none" xmlns="http://www.w3.org/2000/svg">
<path fill-rule="evenodd" clip-rule="evenodd" d="M34.0742 15.1996L56.1465 53.3802C56.7073 54.3558 57.0016 55.4613 57 56.5861C56.9984 57.711 56.7008 58.8156 56.1372 59.7896C55.5736 60.7636 54.7636 61.5728 53.7883 62.1362C52.813 62.6996 51.7066 62.9975 50.5798 63H6.4202C5.29337 62.9975 4.18697 62.6996 3.21168 62.1362C2.23639 61.5728 1.4264 60.7636 0.862778 59.7896C0.299152 58.8156 0.00163922 57.711 6.75423e-06 56.5861C-0.00162571 55.4613 0.292688 54.3558 0.853484 53.3802L22.9258 15.1996C23.4934 14.2261 24.3068 13.4184 25.285 12.8569C26.2631 12.2955 27.3717 12 28.5 12C29.6283 12 30.7369 12.2955 31.715 12.8569C32.6932 13.4184 33.5066 14.2261 34.0742 15.1996ZM28.4925 25.5364C28.4082 30.2392 26.5012 34.7263 23.1722 38.055C19.8431 41.3837 15.3512 43.2949 10.6401 43.3869C15.3474 43.4825 19.8351 45.3927 23.163 48.7174C26.4908 52.0421 28.4007 56.5234 28.4925 61.2224C28.5846 56.5183 30.4986 52.0328 33.8329 48.7072C37.1671 45.3817 41.6623 43.4748 46.3748 43.3869C41.6663 43.2989 37.1749 41.3936 33.8434 38.0709C30.512 34.7482 28.5995 30.2664 28.5075 25.5663L28.4925 25.5364Z" fill="#155CEC"/>
<path d="M79.4148 20.0909V55H72.0341V20.0909H79.4148ZM114.686 20.0909V55H108.311L93.1236 33.0284H92.8679V55H85.4872V20.0909H91.9645L107.033 42.0455H107.339V20.0909H114.686ZM139.722 30.1307C139.585 28.7557 139 27.6875 137.966 26.9261C136.932 26.1648 135.528 25.7841 133.756 25.7841C132.551 25.7841 131.534 25.9545 130.705 26.2955C129.875 26.625 129.239 27.0852 128.795 27.6761C128.364 28.267 128.148 28.9375 128.148 29.6875C128.125 30.3125 128.256 30.858 128.54 31.3239C128.835 31.7898 129.239 32.1932 129.75 32.5341C130.261 32.8636 130.852 33.1534 131.523 33.4034C132.193 33.642 132.909 33.8466 133.67 34.017L136.807 34.767C138.33 35.108 139.727 35.5625 141 36.1307C142.273 36.6989 143.375 37.3977 144.307 38.2273C145.239 39.0568 145.96 40.0341 146.472 41.1591C146.994 42.2841 147.261 43.5739 147.273 45.0284C147.261 47.1648 146.716 49.017 145.636 50.5852C144.568 52.142 143.023 53.3523 141 54.2159C138.989 55.0682 136.563 55.4943 133.722 55.4943C130.903 55.4943 128.449 55.0625 126.358 54.1989C124.278 53.3352 122.653 52.0568 121.483 50.3636C120.324 48.6591 119.716 46.5511 119.659 44.0398H126.801C126.881 45.2102 127.216 46.1875 127.807 46.9716C128.409 47.7443 129.21 48.3295 130.21 48.7273C131.222 49.1136 132.364 49.3068 133.636 49.3068C134.886 49.3068 135.972 49.125 136.892 48.7614C137.824 48.3977 138.545 47.892 139.057 47.2443C139.568 46.5966 139.824 45.8523 139.824 45.0114C139.824 44.2273 139.591 43.5682 139.125 43.0341C138.67 42.5 138 42.0455 137.114 41.6705C136.239 41.2955 135.165 40.9545 133.892 40.6477L130.091 39.6932C127.148 38.9773 124.824 37.858 123.119 36.3352C121.415 34.8125 120.568 32.7614 120.58 30.1818C120.568 28.0682 121.131 26.2216 122.267 24.642C123.415 23.0625 124.989 21.8295 126.989 20.9432C128.989 20.0568 131.261 19.6136 133.807 19.6136C136.398 19.6136 138.659 20.0568 140.591 20.9432C142.534 21.8295 144.045 23.0625 145.125 24.642C146.205 26.2216 146.761 28.0511 146.795 30.1307H139.722ZM159.618 20.0909V55H152.237V20.0909H159.618ZM188.838 31.375C188.599 30.5455 188.264 29.8125 187.832 29.1761C187.401 28.5284 186.872 27.983 186.247 27.5398C185.634 27.0852 184.929 26.7386 184.134 26.5C183.349 26.2614 182.48 26.142 181.526 26.142C179.741 26.142 178.173 26.5852 176.821 27.4716C175.48 28.358 174.435 29.6477 173.685 31.3409C172.935 33.0227 172.56 35.0795 172.56 37.5114C172.56 39.9432 172.929 42.0114 173.668 43.7159C174.406 45.4205 175.452 46.7216 176.804 47.6193C178.156 48.5057 179.753 48.9489 181.594 48.9489C183.264 48.9489 184.69 48.6534 185.872 48.0625C187.065 47.4602 187.974 46.6136 188.599 45.5227C189.236 44.4318 189.554 43.142 189.554 41.6534L191.054 41.875H182.054V36.3182H196.662V40.7159C196.662 43.7841 196.014 46.4205 194.719 48.625C193.423 50.8182 191.639 52.5114 189.366 53.7045C187.094 54.8864 184.491 55.4773 181.56 55.4773C178.287 55.4773 175.412 54.7557 172.935 53.3125C170.457 51.858 168.526 49.7955 167.139 47.125C165.764 44.4432 165.077 41.2614 165.077 37.5795C165.077 34.75 165.486 32.2273 166.304 30.0114C167.134 27.7841 168.293 25.8977 169.781 24.3523C171.27 22.8068 173.003 21.6307 174.98 20.8239C176.957 20.017 179.099 19.6136 181.406 19.6136C183.384 19.6136 185.224 19.9034 186.929 20.483C188.634 21.0511 190.145 21.858 191.463 22.9034C192.793 23.9489 193.878 25.1932 194.719 26.6364C195.56 28.0682 196.099 29.6477 196.338 31.375H188.838ZM202.206 55V20.0909H209.587V34.4943H224.57V20.0909H231.933V55H224.57V40.5795H209.587V55H202.206ZM236.689 26.1761V20.0909H265.359V26.1761H254.672V55H247.376V26.1761H236.689ZM287.207 55H279.298L291.349 20.0909H300.861L312.895 55H304.986L296.241 28.0682H295.969L287.207 55ZM286.713 41.2784H305.395V47.0398H286.713V41.2784ZM324.477 20.0909V55H317.097V20.0909H324.477Z" fill="#155CEC"/>
</svg>
