<svg width="57" height="51" viewBox="0 0 57 51" fill="none" xmlns="http://www.w3.org/2000/svg">
<path fill-rule="evenodd" clip-rule="evenodd" d="M34.0742 3.19957L56.1465 41.3802C56.7073 42.3558 57.0016 43.4613 57 44.5861C56.9984 45.711 56.7008 46.8156 56.1372 47.7896C55.5736 48.7636 54.7636 49.5728 53.7883 50.1362C52.813 50.6996 51.7066 50.9975 50.5798 51H6.4202C5.29337 50.9975 4.18697 50.6996 3.21168 50.1362C2.23639 49.5728 1.4264 48.7636 0.862778 47.7896C0.299152 46.8156 0.00163922 45.711 6.75423e-06 44.5861C-0.00162571 43.4613 0.292688 42.3558 0.853484 41.3802L22.9258 3.19957C23.4934 2.22614 24.3068 1.41837 25.285 0.856926C26.2631 0.295483 27.3717 0 28.5 0C29.6283 0 30.7369 0.295483 31.715 0.856926C32.6932 1.41837 33.5066 2.22614 34.0742 3.19957ZM28.4925 13.5364C28.4082 18.2392 26.5012 22.7263 23.1722 26.055C19.8431 29.3837 15.3512 31.2949 10.6401 31.3869C15.3474 31.4825 19.8351 33.3927 23.163 36.7174C26.4908 40.0421 28.4007 44.5234 28.4925 49.2224C28.5846 44.5183 30.4986 40.0328 33.8329 36.7072C37.1671 33.3817 41.6623 31.4748 46.3748 31.3869C41.6663 31.2989 37.1749 29.3936 33.8434 26.0709C30.512 22.7482 28.5995 18.2664 28.5075 13.5663L28.4925 13.5364Z" fill="#155CEC"/>
</svg>
