<svg width="38" height="34" viewBox="0 0 38 34" fill="none" xmlns="http://www.w3.org/2000/svg">
<path fill-rule="evenodd" clip-rule="evenodd" d="M22.603 2.12621L37.2447 27.4984C37.6167 28.1467 37.8119 28.8814 37.8108 29.6289C37.8097 30.3763 37.6124 31.1104 37.2385 31.7577C36.8646 32.4049 36.3273 32.9427 35.6803 33.3171C35.0334 33.6915 34.2995 33.8894 33.552 33.8911H4.25882C3.51135 33.8894 2.77742 33.6915 2.13046 33.3171C1.4835 32.9427 0.946201 32.4049 0.572321 31.7577C0.198442 31.1104 0.00108737 30.3763 4.4804e-06 29.6289C-0.00107841 28.8814 0.194154 28.1467 0.566157 27.4984L15.2078 2.12621C15.5843 1.47934 16.1239 0.942551 16.7727 0.569454C17.4216 0.196358 18.1569 0 18.9054 0C19.6539 0 20.3892 0.196358 21.0381 0.569454C21.6869 0.942551 22.2265 1.47934 22.603 2.12621ZM18.9004 8.99537C18.8445 12.1205 17.5795 15.1024 15.3712 17.3144C13.1629 19.5264 10.1832 20.7964 7.05809 20.8576C10.1807 20.9211 13.1576 22.1905 15.3651 24.3999C17.5726 26.6092 18.8395 29.5872 18.9004 32.7098C18.9615 29.5838 20.2312 26.603 22.4429 24.3931C24.6547 22.1832 27.6366 20.916 30.7626 20.8576C27.6392 20.7991 24.6599 19.533 22.45 17.3249C20.2401 15.1169 18.9714 12.1386 18.9104 9.01522L18.9004 8.99537Z" fill="#155CEC"/>
</svg>
